ply
format ascii 1.0
element vertex 1173
property float x
property float y
property float z
end_header
31 280 0
105 206 0
36 259 0
32 278 0
33 279 0
32 281 0
34 279 0
34 278 0
31 279 0
36 261 0
39 253 0
37 257 0
38 255 0
37 258 0
37 260 0
37 261 0
38 261 0
39 261 0
37 259 0
38 259 0
40 252 0
40 257 0
51 268 0
40 251 0
41 251 0
41 252 0
41 253 0
41 254 0
41 255 0
41 259 0
114 203 0
42 249 0
41 256 0
41 258 0
40 260 0
44 248 0
45 247 0
43 250 0
43 251 0
42 252 0
42 253 0
44 247 0
44 249 0
44 250 0
44 251 0
44 254 0
44 256 0
44 257 0
44 259 0
44 260 0
45 260 0
47 246 0
46 247 0
46 248 0
46 250 0
46 252 0
46 254 0
45 258 0
46 258 0
46 260 0
45 261 0
45 263 0
49 245 0
48 245 0
49 246 0
47 249 0
47 251 0
47 253 0
47 254 0
47 255 0
47 257 0
46 261 0
49 247 0
49 248 0
49 250 0
49 254 0
48 256 0
47 261 0
48 265 0
51 244 0
49 252 0
49 255 0
49 256 0
51 255 0
52 244 0
50 245 0
51 254 0
49 261 0
51 267 0
51 246 0
51 247 0
51 259 0
50 265 0
53 244 0
53 245 0
51 249 0
52 250 0
52 253 0
52 254 0
51 260 0
51 261 0
51 264 0
54 244 0
53 246 0
53 248 0
52 256 0
53 255 0
53 259 0
52 262 0
55 245 0
55 246 0
54 249 0
54 252 0
54 254 0
52 264 0
52 266 0
56 250 0
54 255 0
54 256 0
54 258 0
56 257 0
53 266 0
52 267 0
56 244 0
57 244 0
56 245 0
56 246 0
56 255 0
55 261 0
55 262 0
57 249 0
58 251 0
57 263 0
56 268 0
57 248 0
58 253 0
58 254 0
58 256 0
57 262 0
58 268 0
59 245 0
59 246 0
58 259 0
58 262 0
57 265 0
61 246 0
60 246 0
60 248 0
58 264 0
59 266 0
61 248 0
61 263 0
60 247 0
61 264 0
61 265 0
62 247 0
64 247 0
62 248 0
63 251 0
61 252 0
61 253 0
62 261 0
62 263 0
63 252 0
63 253 0
63 255 0
63 257 0
62 257 0
62 264 0
62 265 0
64 270 0
64 261 0
64 263 0
64 264 0
65 270 0
66 248 0
66 250 0
69 251 0
67 252 0
69 246 0
67 255 0
67 257 0
67 261 0
66 270 0
68 246 0
69 247 0
67 263 0
67 265 0
70 250 0
70 251 0
70 252 0
70 254 0
71 256 0
70 260 0
70 262 0
70 264 0
69 270 0
70 271 0
69 271 0
71 245 0
72 246 0
71 247 0
72 262 0
72 263 0
71 268 0
72 248 0
72 250 0
72 265 0
73 244 0
73 252 0
76 243 0
74 245 0
74 247 0
74 248 0
73 250 0
73 254 0
74 256 0
76 246 0
74 249 0
75 251 0
75 244 0
76 248 0
76 250 0
76 253 0
77 254 0
77 243 0
77 246 0
77 247 0
77 248 0
78 249 0
76 256 0
78 242 0
79 243 0
78 246 0
78 247 0
78 248 0
78 251 0
78 253 0
76 260 0
335 38 0
79 249 0
77 259 0
80 241 0
80 243 0
80 246 0
80 248 0
79 250 0
80 252 0
81 246 0
80 247 0
80 249 0
81 251 0
82 240 0
82 243 0
76 261 0
84 240 0
84 248 0
84 249 0
84 244 0
85 243 0
85 251 0
85 254 0
85 244 0
86 248 0
88 249 0
86 252 0
87 254 0
88 240 0
87 241 0
88 243 0
89 249 0
87 250 0
86 251 0
85 269 0
85 266 0
86 271 0
85 272 0
88 246 0
88 251 0
88 260 0
88 261 0
87 266 0
87 271 0
90 238 0
92 242 0
89 247 0
88 274 0
91 237 0
89 248 0
90 250 0
90 251 0
89 271 0
89 273 0
89 274 0
92 238 0
91 239 0
90 259 0
90 262 0
90 266 0
90 273 0
92 237 0
93 242 0
92 266 0
96 232 0
94 235 0
93 237 0
93 244 0
93 247 0
94 251 0
93 253 0
93 263 0
92 268 0
92 270 0
93 272 0
95 234 0
97 234 0
95 243 0
95 244 0
93 260 0
93 271 0
95 233 0
96 233 0
95 235 0
95 237 0
95 240 0
95 247 0
96 251 0
94 260 0
94 261 0
95 262 0
95 264 0
94 267 0
95 271 0
95 272 0
94 275 0
96 240 0
96 242 0
98 245 0
95 253 0
96 263 0
96 268 0
97 236 0
97 237 0
98 240 0
98 242 0
96 244 0
96 247 0
97 251 0
97 252 0
97 264 0
96 267 0
96 271 0
96 275 0
104 197 0
100 245 0
98 249 0
96 276 0
99 207 0
102 206 0
98 251 0
99 252 0
98 252 0
105 196 0
106 196 0
99 236 0
104 253 0
104 269 0
106 197 0
107 198 0
109 198 0
106 200 0
105 242 0
105 244 0
104 255 0
105 257 0
104 266 0
108 198 0
109 200 0
107 202 0
108 232 0
106 235 0
108 236 0
106 238 0
106 242 0
107 239 0
107 243 0
106 243 0
108 245 0
109 250 0
109 202 0
109 203 0
108 204 0
109 205 0
108 206 0
108 209 0
108 221 0
108 224 0
108 226 0
107 228 0
107 230 0
107 231 0
106 237 0
109 254 0
109 251 0
107 276 0
112 202 0
110 205 0
110 207 0
109 208 0
109 210 0
110 213 0
109 213 0
109 214 0
109 215 0
108 219 0
108 282 0
107 286 0
111 201 0
111 202 0
111 208 0
111 209 0
110 212 0
110 215 0
110 217 0
110 218 0
107 285 0
106 283 0
109 272 0
108 294 0
108 293 0
108 292 0
113 203 0
112 205 0
111 212 0
112 213 0
112 215 0
112 216 0
110 220 0
111 223 0
111 225 0
111 227 0
109 298 0
113 207 0
112 217 0
113 220 0
113 223 0
111 281 0
110 297 0
109 299 0
109 300 0
113 204 0
114 207 0
113 209 0
113 212 0
114 215 0
112 259 0
110 289 0
114 204 0
113 242 0
115 211 0
115 213 0
114 264 0
113 273 0
112 293 0
112 306 0
114 206 0
115 209 0
113 295 0
114 308 0
113 308 0
117 207 0
115 278 0
115 280 0
114 294 0
120 210 0
118 208 0
116 286 0
118 209 0
116 303 0
119 220 0
118 223 0
121 238 0
118 273 0
118 278 0
117 288 0
116 282 0
115 289 0
115 287 0
117 301 0
116 300 0
118 211 0
119 215 0
119 267 0
119 269 0
119 282 0
120 284 0
116 298 0
118 304 0
122 212 0
122 228 0
120 280 0
119 305 0
123 214 0
122 283 0
121 283 0
120 306 0
125 216 0
123 222 0
122 239 0
121 290 0
120 291 0
124 214 0
124 215 0
126 225 0
123 282 0
122 287 0
124 290 0
125 215 0
120 253 0
127 284 0
124 295 0
124 296 0
124 298 0
123 305 0
126 218 0
127 226 0
124 282 0
125 285 0
125 288 0
125 289 0
124 301 0
124 307 0
126 217 0
127 219 0
128 223 0
126 239 0
127 276 0
124 287 0
126 288 0
129 290 0
126 304 0
129 219 0
127 217 0
129 224 0
127 292 0
127 293 0
126 302 0
127 304 0
127 305 0
127 307 0
127 309 0
129 138 0
126 391 0
157 154 0
151 178 0
130 222 0
128 275 0
127 280 0
128 282 0
127 296 0
129 148 0
129 149 0
129 154 0
129 156 0
129 161 0
129 163 0
129 167 0
129 168 0
127 338 0
129 283 0
129 284 0
132 138 0
130 138 0
129 158 0
132 401 0
132 398 0
134 345 0
131 390 0
128 353 0
133 356 0
128 357 0
132 221 0
130 289 0
130 291 0
129 299 0
129 300 0
130 306 0
129 308 0
129 309 0
131 213 0
219 305 0
132 273 0
133 274 0
130 282 0
130 283 0
130 293 0
130 295 0
130 301 0
130 303 0
130 305 0
131 214 0
131 217 0
215 341 0
213 341 0
132 222 0
132 223 0
132 226 0
132 281 0
131 287 0
131 290 0
133 291 0
131 306 0
130 309 0
133 223 0
133 309 0
133 286 0
133 288 0
132 292 0
132 294 0
132 300 0
132 302 0
132 304 0
132 306 0
132 307 0
134 225 0
134 274 0
136 276 0
136 279 0
135 281 0
133 295 0
133 299 0
133 307 0
133 138 0
135 213 0
135 215 0
134 217 0
219 338 0
219 336 0
135 221 0
136 221 0
136 278 0
136 282 0
136 284 0
134 286 0
134 290 0
134 292 0
134 293 0
134 299 0
134 301 0
134 303 0
135 304 0
135 212 0
136 217 0
221 337 0
221 336 0
136 224 0
135 297 0
135 305 0
134 221 0
135 222 0
136 290 0
137 290 0
137 291 0
136 298 0
136 299 0
136 300 0
136 302 0
135 309 0
138 219 0
138 224 0
138 225 0
139 284 0
138 285 0
138 287 0
139 289 0
138 290 0
137 298 0
138 299 0
137 303 0
137 304 0
140 220 0
140 223 0
138 296 0
138 301 0
138 303 0
145 205 0
135 139 0
138 213 0
138 215 0
141 219 0
140 283 0
140 295 0
139 296 0
140 297 0
139 309 0
141 220 0
140 282 0
141 296 0
140 299 0
140 300 0
140 303 0
138 139 0
138 140 0
142 218 0
142 223 0
143 224 0
141 261 0
141 283 0
142 291 0
142 308 0
139 140 0
142 214 0
142 216 0
237 293 0
143 220 0
142 272 0
142 299 0
146 199 0
147 196 0
148 191 0
149 186 0
131 386 0
144 223 0
144 224 0
144 298 0
142 302 0
143 305 0
149 185 0
149 183 0
149 182 0
141 140 0
144 308 0
144 210 0
145 218 0
145 299 0
146 301 0
146 302 0
147 220 0
147 223 0
146 298 0
147 218 0
148 301 0
148 302 0
147 305 0
147 144 0
149 184 0
149 220 0
150 223 0
148 224 0
147 274 0
147 142 0
150 224 0
148 308 0
149 274 0
149 300 0
150 303 0
149 307 0
149 180 0
150 173 0
150 302 0
152 143 0
152 219 0
151 303 0
152 161 0
152 164 0
153 167 0
153 223 0
151 302 0
152 303 0
152 308 0
154 143 0
152 173 0
153 278 0
153 276 0
153 303 0
154 305 0
154 160 0
153 159 0
154 161 0
155 305 0
155 309 0
153 160 0
153 166 0
155 244 0
156 277 0
157 144 0
157 151 0
158 277 0
159 275 0
158 143 0
158 147 0
157 152 0
158 148 0
162 277 0
166 277 0
168 276 0
166 288 0
166 291 0
170 281 0
170 279 0
171 279 0
172 279 0
177 274 0
174 278 0
177 276 0
178 274 0
179 278 0
179 273 0
182 280 0
182 277 0
183 280 0
184 278 0
185 214 0
184 212 0
184 213 0
186 213 0
188 295 0
188 297 0
188 304 0
188 300 0
188 210 0
187 212 0
187 214 0
188 215 0
188 294 0
189 303 0
188 299 0
187 211 0
188 212 0
188 214 0
189 215 0
190 297 0
190 301 0
189 213 0
189 216 0
191 295 0
190 295 0
191 306 0
191 210 0
190 214 0
190 215 0
192 294 0
191 296 0
194 301 0
192 302 0
191 293 0
192 209 0
193 211 0
193 213 0
192 282 0
193 209 0
194 210 0
194 213 0
191 216 0
195 291 0
196 295 0
192 296 0
192 298 0
196 305 0
195 215 0
193 220 0
195 289 0
196 297 0
196 299 0
196 302 0
197 208 0
194 211 0
195 212 0
198 298 0
198 299 0
198 304 0
197 213 0
196 214 0
198 208 0
197 209 0
197 216 0
198 289 0
199 292 0
200 299 0
199 304 0
200 210 0
200 217 0
197 219 0
199 287 0
199 289 0
199 291 0
200 302 0
200 308 0
200 208 0
199 211 0
200 218 0
200 220 0
202 287 0
201 289 0
200 296 0
201 299 0
201 302 0
201 304 0
201 210 0
200 212 0
200 213 0
200 238 0
201 294 0
202 296 0
201 211 0
201 214 0
203 298 0
203 303 0
203 304 0
203 308 0
201 208 0
202 211 0
203 213 0
201 222 0
203 241 0
203 301 0
203 210 0
203 219 0
204 241 0
205 289 0
204 209 0
204 216 0
205 217 0
129 381 0
205 283 0
206 291 0
207 295 0
207 298 0
207 301 0
205 207 0
205 218 0
205 225 0
207 283 0
207 307 0
206 211 0
206 214 0
208 288 0
207 289 0
208 293 0
208 303 0
210 306 0
204 208 0
206 207 0
207 209 0
206 210 0
207 215 0
208 226 0
209 296 0
209 297 0
209 303 0
209 306 0
207 207 0
206 209 0
208 209 0
208 211 0
206 216 0
207 219 0
208 222 0
209 300 0
210 302 0
210 334 0
210 207 0
208 219 0
209 220 0
209 221 0
209 226 0
209 241 0
211 283 0
211 287 0
212 334 0
210 209 0
207 211 0
209 223 0
210 229 0
211 241 0
212 289 0
212 291 0
210 303 0
211 207 0
209 214 0
211 216 0
128 351 0
214 285 0
213 288 0
214 294 0
214 296 0
214 299 0
214 300 0
213 302 0
213 334 0
211 215 0
214 225 0
131 350 0
214 289 0
215 292 0
215 334 0
213 208 0
211 209 0
211 219 0
214 229 0
212 250 0
214 282 0
215 294 0
216 301 0
214 210 0
212 228 0
211 244 0
215 282 0
215 285 0
216 297 0
216 298 0
216 299 0
215 212 0
214 213 0
215 225 0
215 242 0
217 293 0
217 299 0
217 300 0
217 301 0
215 207 0
216 213 0
216 216 0
217 242 0
217 285 0
218 297 0
218 303 0
217 232 0
216 235 0
218 283 0
219 295 0
218 299 0
219 300 0
217 208 0
219 219 0
223 217 0
128 345 0
220 287 0
219 299 0
220 301 0
217 213 0
131 344 0
220 283 0
221 293 0
221 295 0
220 303 0
220 209 0
219 242 0
221 282 0
221 283 0
222 286 0
222 301 0
222 303 0
219 212 0
222 246 0
221 248 0
219 216 0
223 284 0
223 286 0
222 297 0
221 298 0
224 299 0
223 208 0
221 211 0
225 301 0
222 207 0
221 214 0
222 222 0
222 224 0
224 244 0
129 214 0
227 290 0
225 295 0
226 298 0
226 304 0
224 210 0
224 212 0
223 247 0
130 214 0
227 287 0
226 297 0
225 304 0
224 208 0
224 220 0
226 251 0
130 216 0
231 294 0
227 301 0
225 207 0
226 241 0
228 247 0
228 295 0
229 304 0
226 208 0
227 211 0
228 211 0
230 245 0
230 251 0
230 299 0
231 301 0
229 223 0
232 302 0
231 251 0
233 303 0
231 215 0
233 298 0
134 218 0
234 292 0
235 299 0
234 301 0
236 303 0
234 214 0
235 222 0
236 293 0
235 294 0
236 299 0
237 301 0
233 218 0
239 294 0
238 297 0
236 302 0
233 208 0
234 243 0
239 245 0
237 295 0
241 295 0
237 253 0
236 256 0
235 245 0
237 254 0
238 296 0
239 303 0
239 254 0
241 301 0
241 246 0
244 296 0
242 255 0
245 296 0
243 255 0
244 298 0
241 303 0
243 218 0
247 296 0
245 299 0
247 307 0
246 305 0
248 250 0
246 254 0
248 296 0
249 299 0
248 304 0
246 255 0
248 297 0
248 306 0
247 248 0
250 296 0
250 306 0
249 249 0
250 256 0
249 256 0
252 298 0
250 248 0
250 253 0
251 248 0
255 251 0
254 259 0
252 244 0
253 261 0
252 261 0
254 244 0
254 253 0
254 246 0
255 262 0
